Coordinates
version=1
nRows=41
nColumns=38
inDegrees=no

Units are S.I. units (second, meters, Newtons, ...)
If the header above contains a line with 'inDegrees', this indicates whether rotational values are in degrees (yes) or radians (no).

endheader
time	pelvis_tilt	pelvis_list	pelvis_rotation	pelvis_tx	pelvis_ty	pelvis_tz	hip_flexion_r	hip_adduction_r	hip_rotation_r	knee_angle_r	ankle_angle_r	subtalar_angle_r	mtp_angle_r	hip_flexion_l	hip_adduction_l	hip_rotation_l	knee_angle_l	ankle_angle_l	subtalar_angle_l	mtp_angle_l	lumbar_extension	lumbar_bending	lumbar_rotation	arm_flex_r	arm_add_r	arm_rot_r	elbow_flex_r	pro_sup_r	wrist_flex_r	wrist_dev_r	arm_flex_l	arm_add_l	arm_rot_l	elbow_flex_l	pro_sup_l	wrist_flex_l	wrist_dev_l
1.88	3.08844	1.46554	-1.46479	0.740784	0.496077	1.02867	0.137082	0.0542278	-0.188323	0.63215	-0.113234	0	0	0.204756	-0.0463428	-0.1808	1.16628	-0.0546022	0	0	-0.202206	0.179108	0.154242	0.0176726	-0.736513	0.148656	1.628	0.382846	0	0	0.287549	-0.465611	0.318892	1.19657	0.743469	0	0
1.89	3.10859	1.46372	-1.488	0.741435	0.505367	1.0296	0.120393	0.0539965	-0.188996	0.623196	-0.109088	0	0	0.216219	-0.0478893	-0.19814	1.14015	-0.0606376	0	0	-0.203072	0.176028	0.158061	0.0163796	-0.736216	0.145182	1.63033	0.3853	0	0	0.287704	-0.465267	0.317249	1.19883	0.744692	0	0
1.9	3.12391	1.46207	-1.50607	0.742018	0.514707	1.03038	0.103632	0.054365	-0.189327	0.614202	-0.104851	0	0	0.227085	-0.0503237	-0.216574	1.11192	-0.0678932	0	0	-0.20332	0.173509	0.161494	0.0146701	-0.736132	0.141743	1.63306	0.387499	0	0	0.287176	-0.464964	0.315001	1.20167	0.746266	0	0
1.91	3.1355	1.46066	-1.52041	0.742513	0.524042	1.03105	0.0870329	0.0551012	-0.18896	0.604316	-0.100996	0	0	0.237077	-0.0540895	-0.237264	1.08083	-0.0757713	0	0	-0.203227	0.171501	0.16472	0.0130913	-0.736462	0.138885	1.63585	0.389265	0	0	0.286037	-0.464548	0.312261	1.20466	0.747783	0	0
1.92	-3.137	1.45933	-1.53378	0.742924	0.53337	1.03166	0.0706904	0.0556599	-0.188722	0.594398	-0.0979052	0	0	0.245697	-0.0589586	-0.260744	1.04634	-0.0842772	0	0	-0.20304	0.169677	0.167562	0.0117735	-0.736823	0.136504	1.63847	0.390412	0	0	0.284282	-0.464133	0.308985	1.20791	0.748768	0	0
1.93	-3.12838	1.45826	-1.54506	0.743283	0.542711	1.03213	0.0543669	0.0564722	-0.188642	0.584362	-0.094889	0	0	0.253069	-0.0637835	-0.284362	1.00936	-0.0927971	0	0	-0.202553	0.167867	0.1699	0.0110126	-0.737151	0.135079	1.64072	0.390963	0	0	0.282105	-0.465618	0.306907	1.2117	0.753412	0	0
1.94	-3.11986	1.45794	-1.55621	0.743555	0.552042	1.03246	0.0390934	0.0569807	-0.188815	0.574663	-0.0917979	0	0	0.259908	-0.0671918	-0.30633	0.969588	-0.101188	0	0	-0.201163	0.166506	0.172005	0.0103357	-0.737673	0.13408	1.64307	0.39094	0	0	0.279317	-0.465478	0.302812	1.21529	0.755885	0	0
1.95	-3.11084	1.45819	-1.56762	0.743714	0.56133	1.03265	0.0248093	0.0570001	-0.189571	0.56557	-0.088704	0	0	0.266189	-0.0688527	-0.325976	0.926842	-0.109823	0	0	-0.199125	0.165303	0.173633	0.00990728	-0.738319	0.133496	1.64525	0.390545	0	0	0.27638	-0.465139	0.298573	1.21859	0.757864	0	0
1.96	-3.10088	1.45903	-1.57973	0.743773	0.57058	1.0327	0.0112345	0.0565286	-0.190566	0.556604	-0.0858394	0	0	0.271904	-0.0688287	-0.343319	0.880763	-0.119117	0	0	-0.196343	0.164119	0.174796	0.00982615	-0.7387	0.133189	1.64699	0.389803	0	0	0.273323	-0.464632	0.294186	1.22145	0.759242	0	0
1.97	-3.09331	1.4606	-1.5894	0.743785	0.579803	1.03257	-0.00122508	0.0561159	-0.191111	0.548772	-0.0832842	0	0	0.277273	-0.0677284	-0.357686	0.831955	-0.128938	0	0	-0.192697	0.163295	0.175731	0.0101354	-0.738992	0.133416	1.64827	0.389017	0	0	0.270127	-0.463957	0.289769	1.22394	0.759738	0	0
1.98	-3.08898	1.46327	-1.59586	0.743803	0.589007	1.03223	-0.0120522	0.0560214	-0.191245	0.541836	-0.0810053	0	0	0.28283	-0.065884	-0.368395	0.781343	-0.138862	0	0	-0.188071	0.162804	0.176718	0.0102165	-0.738966	0.133497	1.64941	0.388444	0	0	0.266931	-0.463274	0.28551	1.22618	0.760094	0	0
1.99	-3.0876	1.46682	-1.59923	0.743789	0.598209	1.03171	-0.0220063	0.0563106	-0.191135	0.534548	-0.0787112	0	0	0.288285	-0.06318	-0.374799	0.728469	-0.14834	0	0	-0.182331	0.162614	0.177479	0.0104155	-0.738512	0.1338	1.6498	0.388204	0	0	0.263872	-0.462611	0.281606	1.22783	0.760447	0	0
2	-3.08999	1.4709	-1.5986	0.743725	0.607451	1.03105	-0.0312866	0.0568527	-0.191197	0.527762	-0.0763993	0	0	0.293164	-0.0598376	-0.37776	0.673667	-0.157092	0	0	-0.176138	0.162829	0.178124	0.010313	-0.737707	0.133735	1.64998	0.388583	0	0	0.260959	-0.461815	0.278104	1.2293	0.760526	0	0
2.01	-3.09711	1.47553	-1.593	0.743625	0.616697	1.03022	-0.0400168	0.0578205	-0.191305	0.520844	-0.0739383	0	0	0.297311	-0.0555126	-0.376556	0.616196	-0.166419	0	0	-0.169241	0.163448	0.178226	0.0108528	-0.736531	0.134388	1.6493	0.389762	0	0	0.258203	-0.461009	0.2747	1.22993	0.760731	0	0
2.02	-3.10914	1.48085	-1.58237	0.743478	0.625982	1.02918	-0.0474151	0.0588865	-0.191772	0.515215	-0.0715311	0	0	0.301127	-0.0506216	-0.372149	0.557664	-0.175461	0	0	-0.161359	0.164454	0.177909	0.0120626	-0.735562	0.136187	1.64786	0.391149	0	0	0.255672	-0.460317	0.271675	1.22969	0.760875	0	0
2.03	-3.12732	1.48675	-1.56566	0.743289	0.635308	1.02792	-0.0537557	0.0602018	-0.192046	0.510332	-0.0689248	0	0	0.305007	-0.0458645	-0.365413	0.500078	-0.184228	0	0	-0.152455	0.165837	0.177527	0.0140535	-0.734994	0.139407	1.64547	0.391974	0	0	0.253696	-0.459808	0.269674	1.22842	0.761455	0	0
2.04	3.13062	1.49325	-1.54225	0.743101	0.644676	1.02647	-0.0589544	0.06188	-0.191071	0.506484	-0.0667922	0	0	0.308802	-0.0415946	-0.356885	0.443586	-0.192996	0	0	-0.142653	0.167413	0.177337	0.0165716	-0.734314	0.143554	1.64217	0.392609	0	0	0.251958	-0.459557	0.268278	1.22665	0.762232	0	0
2.05	3.09666	1.49987	-1.5106	0.742946	0.654133	1.02483	-0.0636835	0.0639962	-0.188611	0.503461	-0.0641521	0	0	0.312149	-0.038123	-0.347552	0.389242	-0.201134	0	0	-0.133019	0.169073	0.177904	0.0187528	-0.734138	0.147685	1.63922	0.39241	0	0	0.250741	-0.459404	0.267413	1.2249	0.763352	0	0
2.06	3.05474	1.50572	-1.47127	0.74275	0.663654	1.02309	-0.0691119	0.0662766	-0.184598	0.500818	-0.0612641	0	0	0.314679	-0.0356752	-0.339463	0.339694	-0.20877	0	0	-0.123886	0.170814	0.178542	0.0223641	-0.734612	0.153658	1.63529	0.390821	0	0	0.250014	-0.458855	0.266674	1.22232	0.76337	0	0
2.07	3.00605	1.51035	-1.42565	0.742477	0.673236	1.02132	-0.0756193	0.0684145	-0.179252	0.498657	-0.0584691	0	0	0.317338	-0.0343784	-0.336786	0.298403	-0.216312	0	0	-0.115741	0.172608	0.179287	0.0277193	-0.735957	0.16167	1.63032	0.388821	0	0	0.249585	-0.458204	0.26597	1.21903	0.763714	0	0
2.08	2.95962	1.51365	-1.38242	0.742132	0.682821	1.01954	-0.083008	0.0697636	-0.173484	0.498002	-0.0557247	0	0	0.320467	-0.0337808	-0.339379	0.266877	-0.22427	0	0	-0.109515	0.173824	0.180126	0.0342168	-0.737845	0.170333	1.62509	0.388317	0	0	0.249645	-0.457671	0.265123	1.21591	0.764467	0	0
2.09	2.91935	1.51548	-1.34543	0.741753	0.692461	1.01775	-0.0917839	0.070362	-0.168455	0.497978	-0.0535443	0	0	0.323571	-0.0339939	-0.345167	0.244908	-0.230418	0	0	-0.105035	0.174452	0.181065	0.0411459	-0.739369	0.178572	1.61975	0.388659	0	0	0.250523	-0.457386	0.264658	1.21246	0.766376	0	0
2.1	2.89419	1.51628	-1.32353	0.741371	0.702196	1.01603	-0.101726	0.0699233	-0.164416	0.498047	-0.0513123	0	0	0.326101	-0.0341656	-0.352686	0.231681	-0.236718	0	0	-0.101922	0.174086	0.181914	0.049065	-0.741405	0.18786	1.61413	0.38921	0	0	0.251998	-0.45666	0.263841	1.20835	0.767712	0	0
2.11	2.88389	1.51562	-1.31691	0.740966	0.711961	1.01441	-0.112443	0.0683958	-0.1618	0.499832	-0.049462	0	0	0.327675	-0.0345878	-0.36262	0.227103	-0.241139	0	0	-0.100888	0.173123	0.183138	0.057901	-0.742297	0.197357	1.60777	0.388785	0	0	0.254452	-0.455839	0.263478	1.20336	0.768728	0	0
2.12	2.88527	1.51342	-1.32281	0.740551	0.72173	1.01287	-0.123706	0.0659854	-0.159769	0.503633	-0.0481672	0	0	0.327593	-0.0351972	-0.373733	0.228971	-0.24381	0	0	-0.102075	0.171835	0.185389	0.0670685	-0.741964	0.206163	1.60097	0.386424	0	0	0.257876	-0.454582	0.263682	1.19774	0.767762	0	0
2.13	2.8975	1.51033	-1.34006	0.74016	0.731535	1.01142	-0.134934	0.0627231	-0.158443	0.509324	-0.047412	0	0	0.326417	-0.0358999	-0.385591	0.23741	-0.245697	0	0	-0.1048	0.169843	0.188562	0.0758295	-0.741086	0.21398	1.59426	0.38201	0	0	0.26228	-0.453382	0.264937	1.19182	0.765883	0	0
2.14	2.91535	1.50633	-1.36341	0.739827	0.741391	1.01004	-0.146343	0.0590011	-0.156884	0.516395	-0.0471467	0	0	0.324375	-0.0373724	-0.398699	0.253066	-0.247548	0	0	-0.108626	0.167258	0.192699	0.0848923	-0.741411	0.222288	1.58711	0.377945	0	0	0.267857	-0.452643	0.267977	1.18532	0.764696	0	0
2.15	2.93147	1.50227	-1.38555	0.739568	0.751397	1.00866	-0.157082	0.0550573	-0.154535	0.5249	-0.0476027	0	0	0.321989	-0.0398225	-0.411716	0.27486	-0.249149	0	0	-0.112515	0.164284	0.197495	0.0931532	-0.740767	0.229915	1.57999	0.374119	0	0	0.273379	-0.45231	0.271454	1.17916	0.764392	0	0
2.16	2.94611	1.4979	-1.4065	0.739317	0.761549	1.00726	-0.167491	0.0507818	-0.151339	0.534967	-0.048902	0	0	0.318892	-0.043159	-0.424291	0.302431	-0.249709	0	0	-0.116752	0.160961	0.202745	0.100948	-0.740758	0.236866	1.57328	0.372638	0	0	0.278556	-0.452331	0.275098	1.17394	0.764286	0	0
2.17	2.95072	1.4938	-1.41761	0.739004	0.77193	1.00572	-0.177137	0.046589	-0.147359	0.546418	-0.0508283	0	0	0.315132	-0.0474675	-0.433777	0.332438	-0.249256	0	0	-0.120726	0.158072	0.208513	0.106869	-0.741507	0.242289	1.5683	0.372623	0	0	0.28284	-0.452699	0.278727	1.17038	0.764185	0	0
2.18	2.94686	1.49023	-1.42063	0.738637	0.782609	1.00405	-0.185969	0.0425598	-0.142471	0.559166	-0.0532899	0	0	0.310122	-0.0522953	-0.440399	0.362385	-0.247745	0	0	-0.123866	0.155608	0.214848	0.110861	-0.742908	0.246713	1.56474	0.373222	0	0	0.286005	-0.453643	0.282546	1.16841	0.76426	0	0
2.19	2.95133	1.48746	-1.43226	0.738133	0.793595	1.00244	-0.193605	0.0368976	-0.137197	0.573759	-0.0569159	0	0	0.303346	-0.0549692	-0.444948	0.383664	-0.249076	0	0	-0.125857	0.152341	0.220974	0.113836	-0.743857	0.250974	1.56126	0.373465	0	0	0.287537	-0.454585	0.285291	1.16723	0.764244	0	0
2.2	2.98885	1.48582	-1.47675	0.737442	0.804644	1.00126	-0.198952	0.0272096	-0.13124	0.590922	-0.0630548	0	0	0.296577	-0.0527901	-0.448988	0.389536	-0.260129	0	0	-0.127484	0.145957	0.225996	0.116235	-0.742399	0.25411	1.55705	0.372901	0	0	0.287609	-0.455256	0.286075	1.16596	0.764555	0	0
2.21	3.05901	1.48427	-1.55221	0.736604	0.815507	1.00067	-0.202067	0.0145895	-0.12453	0.611679	-0.0727682	0	0	0.292675	-0.0484285	-0.452487	0.39176	-0.285173	0	0	-0.130253	0.136105	0.228716	0.118265	-0.738407	0.255898	1.55247	0.371858	0	0	0.287037	-0.455891	0.284881	1.16491	0.765319	0	0
2.22	3.13206	1.48312	-1.62842	0.735579	0.826349	1.00032	-0.201986	0.00213664	-0.116306	0.636472	-0.085749	0	0	0.291525	-0.0459167	-0.452193	0.401125	-0.316556	0	0	-0.132453	0.12558	0.229505	0.118674	-0.733833	0.25671	1.54868	0.371661	0	0	0.286028	-0.456522	0.283104	1.16457	0.766926	0	0
2.23	-3.09031	1.48284	-1.69048	0.734197	0.837292	1.00002	-0.197844	-0.00919474	-0.106651	0.665716	-0.102806	0	0	0.291785	-0.0451807	-0.4472	0.418563	-0.336323	0	0	-0.132793	0.116431	0.229461	0.116684	-0.731655	0.256042	1.54589	0.376011	0	0	0.285255	-0.456315	0.282327	1.16397	0.770268	0	0
2.24	-3.03858	1.48244	-1.74207	0.732465	0.84827	0.999956	-0.190649	-0.0199558	-0.0959433	0.699143	-0.124803	0	0	0.292835	-0.044983	-0.441873	0.444298	-0.3392	0	0	-0.132344	0.108858	0.228792	0.112823	-0.729388	0.253812	1.54334	0.379743	0	0	0.285034	-0.454605	0.282192	1.16158	0.773694	0	0
2.25	-2.99252	1.48047	-1.78714	0.730474	0.859154	1.00034	-0.181902	-0.0309058	-0.0848197	0.736459	-0.1528	0	0	0.293596	-0.0425108	-0.429673	0.47524	-0.33073	0	0	-0.133713	0.102125	0.228032	0.107705	-0.726711	0.250151	1.54135	0.379173	0	0	0.285666	-0.451591	0.282641	1.15771	0.776939	0	0
2.26	-2.94831	1.47645	-1.83031	0.728398	0.869894	1.00126	-0.171949	-0.0429591	-0.073462	0.77649	-0.190191	0	0	0.291518	-0.0375461	-0.414091	0.504376	-0.31896	0	0	-0.137746	0.0950154	0.227644	0.102589	-0.724943	0.246345	1.53935	0.378744	0	0	0.287014	-0.44783	0.283395	1.15293	0.780175	0	0
2.27	-2.90892	1.47056	-1.86938	0.726439	0.880481	1.00263	-0.161149	-0.0553719	-0.06111	0.817463	-0.230983	0	0	0.284894	-0.0315469	-0.402867	0.525915	-0.31063	0	0	-0.144491	0.0873577	0.227494	0.0990554	-0.724378	0.244232	1.53727	0.381261	0	0	0.288156	-0.444456	0.283442	1.14879	0.782617	0	0
2.28	-2.87592	1.46447	-1.90333	0.724671	0.890865	1.00423	-0.147432	-0.0672158	-0.0469615	0.860246	-0.274862	0	0	0.275249	-0.025376	-0.399265	0.538388	-0.306874	0	0	-0.152161	0.0798109	0.227836	0.097199	-0.724058	0.243473	1.53502	0.386068	0	0	0.288483	-0.441756	0.282359	1.14582	0.785003	0	0
